<?xml version="1.0" encoding="UTF-8"?>
<svg id="Layer_1" data-name="Layer 1" xmlns="http://www.w3.org/2000/svg" viewBox="0 0 786.2 326.98">
  <defs>
    <style>
      .cls-1 {
        fill: #231f20;
      }
    </style>
  </defs>
  <path class="cls-1" d="M325.52,199.88l-16.59-23.85-16.29,23.85h-18.26l25.42-34.94-24.14-33.76h18.06l15.8,22.28,15.51-22.28h17.18l-23.95,33.17,25.62,35.53h-18.35Z"/>
  <path class="cls-1" d="M109.63,131.33h15.9v55.75h34.45v12.96h-50.35v-68.7Z"/>
  <path class="cls-1" d="M186.59,169.81v-38.47h15.9v37.88c0,13.05,5.69,18.45,15.31,18.45s15.31-5.4,15.31-18.45v-37.88h15.7v38.47c0,20.22-11.58,31.41-31.11,31.41s-31.11-11.19-31.11-31.41Z"/>
  <path class="cls-1" d="M476.69,131.33h15.9v68.7h-15.9v-68.7Z"/>
  <path class="cls-1" d="M590,131.33v68.7h-13.05l-34.25-41.71v41.71h-15.7v-68.7h13.15l34.15,41.71v-41.71h15.7Z"/>
  <path class="cls-1" d="M676.56,187.28v12.76h-53.2v-68.7h51.92v12.76h-36.12v14.92h31.9v12.37h-31.9v15.9h37.39Z"/>
  <g>
    <path class="cls-1" d="M379.7,164.2c0-22.89,17.57-39.27,41.23-39.27,13.13,0,24.08,4.77,31.25,13.45l-11.28,10.42c-5.1-5.86-11.5-8.9-19.09-8.9-14.21,0-24.3,9.98-24.3,24.3s10.09,24.3,24.3,24.3c7.59,0,14-3.04,19.09-9.01l11.28,10.42c-7.16,8.79-18.12,13.56-31.35,13.56-23.54,0-41.12-16.38-41.12-39.27Z"/>
    <path class="cls-1" d="M371.43,164.2c0-12.07,4.09-23.19,10.94-32.06v-.81c-10.9,6.82-17.75,18.57-17.75,32.86s6.86,26.06,17.75,32.87v-.81c-6.85-8.87-10.94-19.98-10.94-32.06Z"/>
    <path class="cls-1" d="M419.31,115.56c12.07,0,23.19,4.09,32.06,10.94h.81c-6.82-10.9-18.57-17.75-32.86-17.75s-26.06,6.86-32.87,17.75h.81c8.87-6.85,19.98-10.94,32.06-10.94Z"/>
    <path class="cls-1" d="M419.31,211.42c-12.07,0-23.19-4.09-32.06-10.94h-.81c6.82,10.9,18.57,17.75,32.86,17.75s26.06-6.86,32.87-17.75h-.81c-8.87,6.85-19.98,10.94-32.06,10.94Z"/>
    <path class="cls-1" d="M359.07,164.2c0-7.52,1.3-14.74,3.69-21.44.06-.18-.17-.32-.29-.17-4.78,5.73-7.56,13.16-7.56,21.61s2.8,15.91,7.59,21.65c.12.14.35,0,.29-.17-2.39-6.72-3.7-13.94-3.7-21.48Z"/>
  </g>
</svg>