<?xml version="1.0" encoding="UTF-8"?>
<svg id="Layer_1" data-name="Layer 1" xmlns="http://www.w3.org/2000/svg" viewBox="0 0 786.2 326.98">
  <defs>
    <style>
      .cls-1 {
        fill: #fff;
      }
    </style>
  </defs>
  <g>
    <path class="cls-1" d="M189.28,219.67h2.02v17.37h10.71v1.75h-12.73v-19.12Z"/>
    <path class="cls-1" d="M207.58,230.63v-10.95h2.02v10.87c0,4.53,2.13,6.61,5.84,6.61s5.87-2.08,5.87-6.61v-10.87h1.97v10.95c0,5.49-2.95,8.33-7.84,8.33s-7.87-2.84-7.87-8.33Z"/>
    <path class="cls-1" d="M243.82,238.79l-6.17-8.41-6.15,8.41h-2.32l7.26-9.83-6.8-9.29h2.32l5.76,7.81,5.74-7.81h2.19l-6.77,9.23,7.29,9.89h-2.35Z"/>
    <path class="cls-1" d="M252.04,230.63v-10.95h2.02v10.87c0,4.53,2.13,6.61,5.84,6.61s5.87-2.08,5.87-6.61v-10.87h1.97v10.95c0,5.49-2.95,8.33-7.84,8.33s-7.87-2.84-7.87-8.33Z"/>
    <path class="cls-1" d="M289.62,238.79l-4.37-6.15c-.49.05-.98.08-1.53.08h-5.13v6.06h-2.02v-19.12h7.16c4.86,0,7.81,2.46,7.81,6.55,0,3-1.58,5.11-4.37,6.01l4.67,6.56h-2.21ZM289.51,226.23c0-3.06-2.02-4.81-5.84-4.81h-5.08v9.59h5.08c3.82,0,5.84-1.78,5.84-4.78Z"/>
    <path class="cls-1" d="M305.32,232.18v6.61h-1.99v-6.61l-7.65-12.51h2.16l6.55,10.73,6.56-10.73h2.02l-7.65,12.51Z"/>
    <path class="cls-1" d="M343.69,226.23c0,4.07-2.95,6.53-7.81,6.53h-5.14v6.04h-2.02v-19.12h7.16c4.86,0,7.81,2.46,7.81,6.55ZM341.67,226.23c0-3.06-2.02-4.81-5.84-4.81h-5.08v9.56h5.08c3.82,0,5.84-1.75,5.84-4.75Z"/>
    <path class="cls-1" d="M363.84,238.79l-4.37-6.15c-.49.05-.98.08-1.53.08h-5.13v6.06h-2.02v-19.12h7.16c4.86,0,7.81,2.46,7.81,6.55,0,3-1.58,5.11-4.37,6.01l4.67,6.56h-2.21ZM363.73,226.23c0-3.06-2.02-4.81-5.84-4.81h-5.08v9.59h5.08c3.82,0,5.84-1.78,5.84-4.78Z"/>
    <path class="cls-1" d="M373.26,219.67h2.02v19.12h-2.02v-19.12Z"/>
    <path class="cls-1" d="M399.92,219.67l-8.47,19.12h-1.99l-8.47-19.12h2.18l7.32,16.61,7.38-16.61h2.05Z"/>
    <path class="cls-1" d="M416.82,233.69h-10.65l-2.29,5.11h-2.1l8.74-19.12h1.99l8.74,19.12h-2.13l-2.29-5.11ZM416.08,232.05l-4.59-10.27-4.59,10.27h9.18Z"/>
    <path class="cls-1" d="M429.9,221.42h-6.72v-1.75h15.46v1.75h-6.72v17.37h-2.02v-17.37Z"/>
    <path class="cls-1" d="M458.11,237.05v1.75h-13.52v-19.12h13.11v1.75h-11.09v6.8h9.89v1.72h-9.89v7.1h11.5Z"/>
    <path class="cls-1" d="M473.78,229.23c0-5.6,4.26-9.72,10.02-9.72,2.79,0,5.3.93,6.99,2.79l-1.28,1.28c-1.56-1.58-3.47-2.27-5.65-2.27-4.62,0-8.09,3.39-8.09,7.92s3.47,7.92,8.09,7.92c2.18,0,4.1-.68,5.65-2.29l1.28,1.28c-1.69,1.86-4.21,2.81-7.02,2.81-5.74,0-10-4.12-10-9.72Z"/>
    <path class="cls-1" d="M497.84,219.67h2.02v19.12h-2.02v-19.12Z"/>
    <path class="cls-1" d="M524.8,219.67v19.12h-1.67l-12.29-15.51v15.51h-2.02v-19.12h1.67l12.32,15.51v-15.51h1.99Z"/>
    <path class="cls-1" d="M547.27,237.05v1.75h-13.52v-19.12h13.11v1.75h-11.09v6.8h9.89v1.72h-9.89v7.1h11.5Z"/>
    <path class="cls-1" d="M574.61,219.67v19.12h-1.94v-15.3l-7.51,12.87h-.96l-7.51-12.78v15.21h-1.94v-19.12h1.67l8.3,14.18,8.22-14.18h1.67Z"/>
    <path class="cls-1" d="M595.56,233.69h-10.65l-2.29,5.11h-2.1l8.74-19.12h1.99l8.74,19.12h-2.13l-2.29-5.11ZM594.82,232.05l-4.59-10.27-4.59,10.27h9.18Z"/>
  </g>
  <g>
    <path class="cls-1" d="M325.52,179.15l-16.59-23.85-16.29,23.85h-18.26l25.42-34.94-24.14-33.76h18.06l15.8,22.28,15.51-22.28h17.18l-23.95,33.17,25.62,35.53h-18.35Z"/>
    <path class="cls-1" d="M109.63,110.61h15.9v55.75h34.45v12.96h-50.35v-68.7Z"/>
    <path class="cls-1" d="M186.59,149.08v-38.47h15.9v37.88c0,13.05,5.69,18.45,15.31,18.45s15.31-5.4,15.31-18.45v-37.88h15.7v38.47c0,20.22-11.58,31.41-31.11,31.41s-31.11-11.19-31.11-31.41Z"/>
    <path class="cls-1" d="M476.69,110.61h15.9v68.7h-15.9v-68.7Z"/>
    <path class="cls-1" d="M590,110.61v68.7h-13.05l-34.25-41.71v41.71h-15.7v-68.7h13.15l34.15,41.71v-41.71h15.7Z"/>
    <path class="cls-1" d="M676.56,166.55v12.76h-53.2v-68.7h51.92v12.76h-36.12v14.92h31.9v12.37h-31.9v15.9h37.39Z"/>
    <path class="cls-1" d="M379.7,143.47c0-22.89,17.57-39.27,41.23-39.27,13.13,0,24.08,4.77,31.25,13.45l-11.28,10.42c-5.1-5.86-11.5-8.9-19.09-8.9-14.21,0-24.3,9.98-24.3,24.3s10.09,24.3,24.3,24.3c7.59,0,14-3.04,19.09-9.01l11.28,10.42c-7.16,8.79-18.12,13.56-31.35,13.56-23.54,0-41.12-16.38-41.12-39.27Z"/>
    <path class="cls-1" d="M371.43,143.47c0-12.07,4.09-23.19,10.94-32.06v-.81c-10.9,6.82-17.75,18.57-17.75,32.86s6.86,26.06,17.75,32.87v-.81c-6.85-8.87-10.94-19.98-10.94-32.06Z"/>
    <path class="cls-1" d="M419.31,94.83c12.07,0,23.19,4.09,32.06,10.94h.81c-6.82-10.9-18.57-17.75-32.86-17.75s-26.06,6.86-32.87,17.75h.81c8.87-6.85,19.98-10.94,32.06-10.94Z"/>
    <path class="cls-1" d="M419.31,190.69c-12.07,0-23.19-4.09-32.06-10.94h-.81c6.82,10.9,18.57,17.75,32.86,17.75s26.06-6.86,32.87-17.75h-.81c-8.87,6.85-19.98,10.94-32.06,10.94Z"/>
    <path class="cls-1" d="M359.07,143.47c0-7.86,1.42-15.38,4.01-22.33-5.16,5.82-8.18,13.52-8.18,22.33s3.03,16.52,8.19,22.35c-2.59-6.96-4.02-14.49-4.02-22.35Z"/>
  </g>
</svg>